<svg version="1.2" xmlns="http://www.w3.org/2000/svg" viewBox="0 0 1600 916" width="1600" height="916">
	<style>
		.s0 { fill: #000000 } 
	</style>
	<path id="zone-1" class="s0" d="m168 599l14-9 29-9 24-8 18-1h30l26-6 7-18-4-47-2-43h-34l-24 7-13-7-22 7-25 13-12 25-29 17-22 7-29 7 1 15 11 24 12 22 7 13z"/>
	<path id="zone-2" class="s0" d="m1096 282h41l39-2 13 8 22-5 36-7 19-16 15-27 10-28 14-18 32-8 7 11 23 59 20 51-22 8-21 6 12 50-36 5-70 9-4 31-22 5 4 73-34 8-2 19-77-3-1 27-96-3 2-67 49 3 9-3 11-3h10 10l-2-67z"/>
	<path id="zone-3" class="s0" d="m331 542l96-7h29l38 2 93-5 100-6 27-1 7 32-26 6-56 6-59 10-96-15 4 82-72-1 1-39-32-3-54-7z"/>
	<path id="zone-4" class="s0" d="m969 320l-31-3-1 22-46-1-2 13-4 20 4 32 4 29 2 21-5 13-12 7h-21l-11-15-8-21-25-8-36 2-27 7-18 7-8 13 3 15-2 9-4 25 13 1 58 2 43 4 57 3h65l8-50z"/>
	<path id="zone-5" class="s0" d="m974 518l35 3v-63h19 30l46-6-18-168-13-5-12-6-80 10 7 29-8 10-2 25-2 161"/>
	<path id="playground" class="s0" d="m321 458l55-12 40-5-10 17-4 22 6 20 21 25-95 10-10-8-2-60z"/>
</svg>